<svg xmlns="http://www.w3.org/2000/svg" xmlns:xlink="http://www.w3.org/1999/xlink" width="150" zoomAndPan="magnify" viewBox="0 0 112.5 112.499997" height="150" preserveAspectRatio="xMidYMid meet" version="1.0"><defs><clipPath id="id1"><path d="M 12.203125 12.203125 L 99.953125 12.203125 L 99.953125 99.953125 L 12.203125 99.953125 Z M 12.203125 12.203125 " clip-rule="nonzero"/></clipPath></defs><g clip-path="url(#id1)"><path fill="#563d7c" d="M 12.203125 88.636719 C 12.203125 94.886719 17.269531 99.953125 23.515625 99.953125 L 88.636719 99.953125 C 94.886719 99.953125 99.953125 94.886719 99.953125 88.636719 L 99.953125 23.515625 C 99.953125 17.269531 94.886719 12.203125 88.636719 12.203125 L 23.515625 12.203125 C 17.265625 12.203125 12.203125 17.269531 12.203125 23.515625 Z M 12.203125 88.636719 " fill-opacity="1" fill-rule="nonzero"/></g><path fill="#ffffff" d="M 48.589844 51.019531 L 48.589844 38.589844 L 59.53125 38.589844 C 60.570312 38.589844 61.574219 38.679688 62.542969 38.851562 C 63.507812 39.023438 64.367188 39.335938 65.109375 39.78125 C 65.855469 40.226562 66.449219 40.847656 66.894531 41.640625 C 67.339844 42.4375 67.5625 43.453125 67.5625 44.691406 C 67.5625 46.925781 66.894531 48.535156 65.554688 49.53125 C 64.21875 50.519531 62.503906 51.019531 60.421875 51.019531 Z M 36.90625 29.511719 L 36.90625 82.640625 L 62.65625 82.640625 C 65.035156 82.640625 67.355469 82.34375 69.609375 81.746094 C 71.871094 81.15625 73.878906 80.234375 75.640625 78.996094 C 77.402344 77.753906 78.800781 76.15625 79.84375 74.195312 C 80.882812 72.234375 81.40625 69.917969 81.40625 67.238281 C 81.40625 63.917969 80.601562 61.074219 78.988281 58.71875 C 77.375 56.363281 74.933594 54.714844 71.65625 53.769531 C 74.039062 52.628906 75.839844 51.164062 77.050781 49.378906 C 78.269531 47.59375 78.875 45.363281 78.875 42.683594 C 78.875 40.203125 78.46875 38.121094 77.648438 36.433594 C 76.828125 34.746094 75.675781 33.394531 74.191406 32.378906 C 72.699219 31.359375 70.914062 30.628906 68.832031 30.183594 C 66.75 29.734375 64.441406 29.511719 61.910156 29.511719 Z M 48.589844 73.566406 L 48.589844 58.980469 L 61.316406 58.980469 C 63.84375 58.980469 65.878906 59.5625 67.417969 60.730469 C 68.957031 61.894531 69.722656 63.839844 69.722656 66.570312 C 69.722656 67.957031 69.488281 69.097656 69.015625 69.996094 C 68.542969 70.886719 67.914062 71.589844 67.117188 72.113281 C 66.328125 72.632812 65.40625 73.007812 64.367188 73.230469 C 63.324219 73.453125 62.234375 73.566406 61.09375 73.566406 Z M 48.589844 73.566406 " fill-opacity="1" fill-rule="nonzero"/></svg>