<svg xmlns="http://www.w3.org/2000/svg" xmlns:xlink="http://www.w3.org/1999/xlink" width="150" zoomAndPan="magnify" viewBox="0 0 112.5 112.499997" height="150" preserveAspectRatio="xMidYMid meet" version="1.0"><defs><clipPath id="id1"><path d="M 16.363281 22 L 95.863281 22 L 95.863281 112.003906 L 16.363281 112.003906 Z M 16.363281 22 " clip-rule="nonzero"/></clipPath></defs><g clip-path="url(#id1)"><path fill="#264de4" d="M 56.078125 112.496094 L 23.640625 103.460938 L 16.414062 22.109375 L 95.839844 22.109375 L 88.609375 103.449219 L 56.082031 112.496094 Z M 56.078125 112.496094 " fill-opacity="1" fill-rule="nonzero"/></g><path fill="#2965f1" d="M 82.414062 98.269531 L 88.597656 28.761719 L 56.128906 28.761719 L 56.128906 105.578125 Z M 82.414062 98.269531 " fill-opacity="1" fill-rule="nonzero"/><path fill="#ebebeb" d="M 32.984375 58.933594 L 33.875 68.910156 L 56.128906 68.910156 L 56.128906 58.933594 Z M 32.984375 58.933594 " fill-opacity="1" fill-rule="nonzero"/><path fill="#ebebeb" d="M 31.195312 38.734375 L 32.097656 48.714844 L 56.128906 48.714844 L 56.128906 38.734375 Z M 31.195312 38.734375 " fill-opacity="1" fill-rule="nonzero"/><path fill="#ebebeb" d="M 56.128906 84.84375 L 56.085938 84.859375 L 45.011719 81.855469 L 44.304688 73.898438 L 34.320312 73.898438 L 35.714844 89.566406 L 56.082031 95.238281 L 56.128906 95.226562 Z M 56.128906 84.84375 " fill-opacity="1" fill-rule="nonzero"/><path fill="#ffffff" d="M 35.109375 0 L 47.152344 0 L 47.152344 5.054688 L 40.144531 5.054688 L 40.144531 10.105469 L 47.152344 10.105469 L 47.152344 15.160156 L 35.109375 15.160156 Z M 35.109375 0 " fill-opacity="1" fill-rule="nonzero"/><path fill="#ffffff" d="M 49.558594 0 L 61.601562 0 L 61.601562 4.394531 L 54.597656 4.394531 L 54.597656 5.273438 L 61.601562 5.273438 L 61.601562 15.378906 L 49.558594 15.378906 L 49.558594 10.765625 L 56.566406 10.765625 L 56.566406 9.886719 L 49.558594 9.886719 Z M 49.558594 0 " fill-opacity="1" fill-rule="nonzero"/><path fill="#ffffff" d="M 64.011719 0 L 76.054688 0 L 76.054688 4.394531 L 69.046875 4.394531 L 69.046875 5.273438 L 76.054688 5.273438 L 76.054688 15.378906 L 64.011719 15.378906 L 64.011719 10.765625 L 71.019531 10.765625 L 71.019531 9.886719 L 64.011719 9.886719 Z M 64.011719 0 " fill-opacity="1" fill-rule="nonzero"/><path fill="#ffffff" d="M 79.210938 58.933594 L 81.003906 38.734375 L 56.09375 38.734375 L 56.09375 48.714844 L 70.105469 48.714844 L 69.203125 58.933594 L 56.09375 58.933594 L 56.09375 68.910156 L 68.339844 68.910156 L 67.183594 81.847656 L 56.09375 84.855469 L 56.09375 95.234375 L 76.480469 89.566406 L 76.628906 87.878906 L 78.96875 61.609375 Z M 79.210938 58.933594 " fill-opacity="1" fill-rule="nonzero"/></svg>