<svg xmlns="http://www.w3.org/2000/svg" xmlns:xlink="http://www.w3.org/1999/xlink" width="150" zoomAndPan="magnify" viewBox="0 0 112.5 112.499997" height="150" preserveAspectRatio="xMidYMid meet" version="1.0"><defs><clipPath id="id1"><path d="M 16.363281 22 L 95.863281 22 L 95.863281 112.003906 L 16.363281 112.003906 Z M 16.363281 22 " clip-rule="nonzero"/></clipPath></defs><g clip-path="url(#id1)"><path fill="#e44d26" d="M 95.84375 22.109375 L 88.605469 103.449219 L 56.078125 112.496094 L 23.640625 103.460938 L 16.414062 22.109375 L 95.839844 22.105469 L 95.84375 22.105469 Z M 95.84375 22.109375 " fill-opacity="1" fill-rule="nonzero"/></g><path fill="#f16529" d="M 56.128906 105.578125 L 82.414062 98.269531 L 88.597656 28.761719 L 56.128906 28.761719 Z M 56.128906 105.578125 " fill-opacity="1" fill-rule="nonzero"/><path fill="#ebebeb" d="M 42.0625 48.714844 L 56.128906 48.714844 L 56.128906 38.734375 L 31.195312 38.734375 L 31.433594 41.414062 L 33.875 68.910156 L 56.128906 68.910156 L 56.128906 58.933594 L 42.972656 58.933594 Z M 42.0625 48.714844 " fill-opacity="1" fill-rule="nonzero"/><path fill="#ebebeb" d="M 44.304688 73.898438 L 34.320312 73.898438 L 35.714844 89.566406 L 56.082031 95.238281 L 56.128906 95.226562 L 56.128906 84.84375 L 56.085938 84.859375 L 45.011719 81.855469 Z M 44.304688 73.898438 " fill-opacity="1" fill-rule="nonzero"/><path fill="#ffffff" d="M 23.804688 0 L 28.859375 0 L 28.859375 5.007812 L 33.480469 5.007812 L 33.480469 0 L 38.535156 0 L 38.535156 15.171875 L 33.480469 15.171875 L 33.480469 10.089844 L 28.859375 10.089844 L 28.859375 15.171875 L 23.804688 15.171875 Z M 23.804688 0 " fill-opacity="1" fill-rule="nonzero"/><path fill="#ffffff" d="M 45.179688 5.03125 L 40.730469 5.03125 L 40.730469 0 L 54.683594 0 L 54.683594 5.03125 L 50.230469 5.03125 L 50.230469 15.171875 L 45.179688 15.171875 Z M 45.179688 5.03125 " fill-opacity="1" fill-rule="nonzero"/><path fill="#ffffff" d="M 56.898438 0 L 62.167969 0 L 65.40625 5.332031 L 68.644531 0 L 73.917969 0 L 73.917969 15.171875 L 68.886719 15.171875 L 68.886719 7.652344 L 65.40625 13.042969 L 65.320312 13.042969 L 61.84375 7.652344 L 61.84375 15.171875 L 56.898438 15.171875 Z M 56.898438 0 " fill-opacity="1" fill-rule="nonzero"/><path fill="#ffffff" d="M 76.433594 0 L 81.484375 0 L 81.484375 10.15625 L 88.59375 10.15625 L 88.59375 15.171875 L 76.433594 15.171875 Z M 76.433594 0 " fill-opacity="1" fill-rule="nonzero"/><path fill="#ffffff" d="M 56.09375 68.910156 L 68.339844 68.910156 L 67.183594 81.847656 L 56.09375 84.855469 L 56.09375 95.234375 L 76.480469 89.566406 L 76.628906 87.878906 L 78.96875 61.609375 L 79.210938 58.933594 L 56.09375 58.933594 Z M 56.09375 68.910156 " fill-opacity="1" fill-rule="nonzero"/><path fill="#ffffff" d="M 56.09375 48.691406 L 56.09375 48.714844 L 80.113281 48.714844 L 80.3125 46.472656 L 80.765625 41.414062 L 81.003906 38.734375 L 56.09375 38.734375 Z M 56.09375 48.691406 " fill-opacity="1" fill-rule="nonzero"/></svg>