<svg xmlns="http://www.w3.org/2000/svg" xmlns:xlink="http://www.w3.org/1999/xlink" width="150" zoomAndPan="magnify" viewBox="0 0 112.5 112.499997" height="150" preserveAspectRatio="xMidYMid meet" version="1.0"><defs><clipPath id="id1"><path d="M 11.25 11.871094 L 100.5 11.871094 L 100.5 101.121094 L 11.25 101.121094 Z M 11.25 11.871094 " clip-rule="nonzero"/></clipPath></defs><g clip-path="url(#id1)"><path fill="#ffd600" d="M 11.25 11.871094 L 100.5 11.871094 L 100.5 101.121094 L 11.25 101.121094 Z M 11.25 11.871094 " fill-opacity="1" fill-rule="nonzero"/></g><path fill="#000001" d="M 69.605469 78.679688 C 71.320312 81.464844 73.183594 84.136719 77.132812 84.136719 C 80.449219 84.136719 82.191406 82.488281 82.191406 80.207031 C 82.191406 77.476562 80.390625 76.507812 76.742188 74.917969 L 74.742188 74.066406 C 68.96875 71.617188 65.128906 68.546875 65.128906 62.0625 C 65.128906 56.089844 69.703125 51.542969 76.847656 51.542969 C 81.9375 51.542969 85.59375 53.304688 88.234375 57.921875 L 82 61.90625 C 80.628906 59.457031 79.148438 58.492188 76.847656 58.492188 C 74.503906 58.492188 73.019531 59.972656 73.019531 61.90625 C 73.019531 64.292969 74.507812 65.261719 77.941406 66.742188 L 79.941406 67.59375 C 86.746094 70.492188 90.582031 73.453125 90.582031 80.105469 C 90.582031 87.277344 84.921875 91.207031 77.320312 91.207031 C 69.886719 91.207031 65.664062 87.476562 63.3125 82.855469 Z M 40.882812 78.882812 C 42.136719 81.128906 44.042969 82.855469 46.785156 82.855469 C 49.40625 82.855469 50.917969 81.820312 50.917969 77.792969 L 50.917969 51.539062 L 59.179688 51.539062 L 59.179688 79.058594 C 59.179688 87.40625 54.339844 91.207031 47.265625 91.207031 C 40.878906 91.207031 36.265625 86.878906 34.386719 82.855469 Z M 40.882812 78.882812 " fill-opacity="1" fill-rule="nonzero"/></svg>