<svg xmlns="http://www.w3.org/2000/svg" xmlns:xlink="http://www.w3.org/1999/xlink" width="150" zoomAndPan="magnify" viewBox="0 0 112.5 112.499997" height="150" preserveAspectRatio="xMidYMid meet" version="1.0"><defs><clipPath id="id1"><path d="M 0 18 L 112.003906 18 L 112.003906 94.839844 L 0 94.839844 Z M 0 18 " clip-rule="nonzero"/></clipPath></defs><g clip-path="url(#id1)"><path fill="#ef533f" d="M 69.773438 94.40625 C 69.46875 94.40625 69.183594 94.332031 68.917969 94.183594 C 68.652344 94.035156 68.441406 93.828125 68.285156 93.566406 L 55.203125 71.757812 L 30.730469 78.40625 C 30.347656 78.5 29.976562 78.464844 29.617188 78.300781 C 29.257812 78.140625 28.984375 77.886719 28.800781 77.539062 L 0.207031 23.832031 C 0.140625 23.707031 0.0898438 23.578125 0.0546875 23.445312 C 0.0195312 23.308594 0 23.171875 0 23.03125 C 0 22.890625 0.015625 22.753906 0.046875 22.617188 C 0.078125 22.484375 0.125 22.351562 0.1875 22.226562 C 0.253906 22.105469 0.332031 21.988281 0.421875 21.882812 C 0.511719 21.777344 0.617188 21.683594 0.730469 21.605469 C 0.84375 21.523438 0.964844 21.457031 1.097656 21.40625 C 1.226562 21.355469 1.359375 21.320312 1.5 21.300781 L 25.777344 18.039062 C 26.121094 17.992188 26.445312 18.042969 26.757812 18.191406 C 27.070312 18.34375 27.316406 18.566406 27.496094 18.859375 L 56.804688 67.738281 L 90.863281 58.484375 L 79.507812 42.453125 C 79.425781 42.339844 79.359375 42.21875 79.304688 42.089844 C 79.253906 41.957031 79.21875 41.824219 79.199219 41.683594 C 79.179688 41.546875 79.175781 41.40625 79.191406 41.265625 C 79.203125 41.125 79.234375 40.992188 79.28125 40.859375 C 79.332031 40.726562 79.394531 40.601562 79.472656 40.484375 C 79.546875 40.367188 79.640625 40.261719 79.742188 40.167969 C 79.847656 40.074219 79.960938 39.992188 80.085938 39.925781 C 80.207031 39.859375 80.335938 39.804688 80.472656 39.769531 L 96.410156 36.007812 C 96.734375 35.929688 97.054688 35.945312 97.371094 36.054688 C 97.6875 36.160156 97.949219 36.34375 98.15625 36.605469 L 111.945312 53.792969 C 112.039062 53.902344 112.113281 54.027344 112.171875 54.15625 C 112.230469 54.285156 112.273438 54.421875 112.300781 54.5625 C 112.324219 54.703125 112.332031 54.847656 112.324219 54.992188 C 112.3125 55.132812 112.289062 55.273438 112.242188 55.410156 C 112.199219 55.546875 112.136719 55.675781 112.0625 55.796875 C 111.984375 55.917969 111.894531 56.027344 111.789062 56.128906 C 111.683594 56.226562 111.570312 56.3125 111.445312 56.378906 C 111.320312 56.449219 111.1875 56.503906 111.046875 56.542969 L 96.5625 60.488281 L 109.242188 78.339844 C 109.402344 78.5625 109.5 78.808594 109.542969 79.078125 C 109.585938 79.34375 109.5625 79.609375 109.480469 79.867188 C 109.398438 80.128906 109.261719 80.355469 109.074219 80.550781 C 108.882812 80.742188 108.660156 80.886719 108.402344 80.976562 L 70.324219 94.28125 C 70.148438 94.347656 69.964844 94.382812 69.773438 94.390625 Z M 58.667969 70.8125 L 70.527344 90.574219 L 105.085938 78.484375 L 93.015625 61.480469 Z M 4.421875 24.371094 L 31.183594 74.703125 L 53.394531 68.683594 L 25.109375 21.625 Z M 83.839844 42.550781 L 94.460938 57.515625 L 107.671875 53.925781 L 96.179688 39.628906 Z M 83.839844 42.550781 " fill-opacity="1" fill-rule="nonzero"/></g></svg>