<svg xmlns="http://www.w3.org/2000/svg" xmlns:xlink="http://www.w3.org/1999/xlink" width="150" zoomAndPan="magnify" viewBox="0 0 112.5 112.499997" height="150" preserveAspectRatio="xMidYMid meet" version="1.0"><defs><clipPath id="id1"><path d="M 15.695312 11.25 L 96.695312 11.25 L 96.695312 101.25 L 15.695312 101.25 Z M 15.695312 11.25 " clip-rule="nonzero"/></clipPath></defs><g clip-path="url(#id1)"><path fill="#5d4037" d="M 96.640625 41.175781 C 96.640625 87.300781 56.195312 101.25 56.195312 101.25 C 56.195312 101.25 15.746094 87.300781 15.746094 41.175781 C 15.746094 35.550781 16.195312 30.824219 16.644531 27 C 17.320312 21.375 21.140625 16.875 26.53125 15.523438 C 33.5 13.5 44.507812 11.25 56.195312 11.25 C 67.878906 11.25 78.890625 13.5 86.078125 15.523438 C 91.472656 16.875 95.292969 21.601562 95.96875 27 C 96.191406 30.824219 96.640625 35.773438 96.640625 41.175781 Z M 96.640625 41.175781 " fill-opacity="1" fill-rule="nonzero"/><path fill="#4caf50" d="M 56.195312 18 C 67.203125 18 77.539062 20.25 84.28125 22.050781 C 86.980469 22.726562 88.777344 24.976562 89.226562 27.898438 C 89.675781 32.175781 89.898438 36.675781 89.898438 41.175781 C 89.898438 76.273438 64.058594 90.449219 56.195312 93.824219 C 48.328125 90.226562 22.488281 76.050781 22.488281 41.175781 C 22.488281 36.675781 22.710938 32.175781 23.160156 27.898438 C 23.386719 24.976562 25.410156 22.726562 28.105469 22.050781 C 34.847656 20.25 45.183594 18 56.195312 18 M 56.195312 11.25 C 44.507812 11.25 33.5 13.5 26.308594 15.523438 C 21.140625 16.875 17.09375 21.601562 16.644531 27 C 16.195312 30.824219 15.746094 35.773438 15.746094 41.175781 C 15.746094 87.300781 56.195312 101.25 56.195312 101.25 C 56.195312 101.25 96.640625 87.300781 96.640625 41.175781 C 96.640625 35.550781 96.191406 30.824219 95.742188 27 C 95.066406 21.375 91.25 16.875 85.855469 15.523438 C 78.890625 13.5 67.878906 11.25 56.195312 11.25 Z M 56.195312 11.25 " fill-opacity="1" fill-rule="nonzero"/></g><path fill="#dcedc8" d="M 53.945312 65.25 L 58.441406 65.25 L 58.441406 83.25 L 53.945312 83.25 Z M 53.945312 65.25 " fill-opacity="1" fill-rule="nonzero"/><path fill="#4caf50" d="M 56.195312 24.75 C 56.195312 24.75 42.710938 36 42.710938 54 C 42.710938 65.699219 50.125 73.125 53.945312 76.5 L 56.195312 69.75 L 58.441406 76.5 C 62.261719 73.125 69.675781 65.699219 69.675781 54 C 69.675781 36 56.195312 24.75 56.195312 24.75 Z M 56.195312 24.75 " fill-opacity="1" fill-rule="nonzero"/><path fill="#81c784" d="M 56.195312 24.75 C 56.195312 24.75 42.710938 36 42.710938 54 C 42.710938 65.699219 50.125 73.125 53.945312 76.5 L 56.195312 69.75 Z M 56.195312 24.75 " fill-opacity="1" fill-rule="nonzero"/></svg>