<svg xmlns="http://www.w3.org/2000/svg" xmlns:xlink="http://www.w3.org/1999/xlink" width="150" zoomAndPan="magnify" viewBox="0 0 112.5 112.499997" height="150" preserveAspectRatio="xMidYMid meet" version="1.0"><defs><clipPath id="id1"><path d="M 31 68 L 48 68 L 48 93.078125 L 31 93.078125 Z M 31 68 " clip-rule="nonzero"/></clipPath></defs><g clip-path="url(#id1)"><path fill="#105e86" d="M 32.90625 90.617188 C 32.246094 90.617188 31.660156 90.578125 31.167969 90.5 L 31.167969 92.6875 C 32.183594 93.09375 33.027344 93.296875 33.714844 93.296875 C 36.296875 93.296875 38.679688 91.71875 40.851562 88.546875 C 43.625 84.445312 45.871094 77.855469 47.574219 68.800781 L 43.609375 68.800781 C 42.902344 74.363281 41.648438 79.511719 39.84375 84.21875 C 39.972656 83.277344 39.660156 81.621094 38.921875 79.25 L 35.644531 68.800781 L 31.542969 68.800781 L 36.113281 82.777344 C 36.804688 84.875 37.152344 86.269531 37.152344 86.957031 C 37.152344 87.945312 36.707031 88.835938 35.820312 89.636719 C 35.082031 90.285156 34.113281 90.617188 32.90625 90.617188 Z M 32.90625 90.617188 " fill-opacity="1" fill-rule="nonzero"/></g><path fill="#de8a03" d="M 91.261719 62.386719 L 91.261719 86.867188 L 103.113281 86.867188 L 103.113281 83.855469 L 95.25 83.855469 L 95.25 62.386719 Z M 91.261719 62.386719 " fill-opacity="1" fill-rule="nonzero"/><path fill="#105e86" d="M 8.15625 67.339844 L 8.203125 67.339844 L 14.511719 86.867188 L 17.6875 86.867188 L 24.042969 67.339844 L 24.078125 67.339844 C 24.738281 73.453125 25.160156 79.949219 25.292969 86.867188 L 29.484375 86.867188 C 29.285156 79.472656 28.648438 71.304688 27.554688 62.386719 L 22.621094 62.386719 L 16.550781 80.378906 L 16.515625 80.378906 L 10.5 62.386719 L 5.316406 62.386719 C 4.335938 69.996094 3.71875 78.164062 3.46875 86.867188 L 7.277344 86.867188 C 7.398438 79.707031 7.691406 73.199219 8.15625 67.339844 Z M 8.15625 67.339844 " fill-opacity="1" fill-rule="nonzero"/><path fill="#de8a03" d="M 87.644531 74.167969 C 87.644531 66.070312 84.410156 62.011719 77.933594 62.011719 C 74.761719 62.011719 72.28125 63.039062 70.496094 65.097656 C 68.558594 67.347656 67.585938 70.65625 67.585938 75.035156 C 67.585938 79.335938 68.441406 82.496094 70.171875 84.507812 C 71.75 86.324219 74.125 87.230469 77.304688 87.230469 C 78.496094 87.230469 79.585938 87.085938 80.574219 86.796875 L 86.542969 90.214844 L 88.167969 87.464844 L 88.152344 87.464844 L 83.574219 85.253906 C 83.980469 84.914062 84.371094 84.554688 84.722656 84.148438 C 86.675781 81.902344 87.644531 78.574219 87.644531 74.167969 Z M 77.714844 84.203125 C 75.710938 84.203125 74.246094 83.460938 73.308594 81.988281 L 73.316406 81.964844 C 72.304688 80.371094 71.800781 77.804688 71.800781 74.28125 C 71.800781 68.113281 73.710938 65.027344 77.523438 65.027344 C 79.519531 65.027344 80.992188 65.769531 81.925781 67.242188 C 82.933594 68.84375 83.4375 71.386719 83.4375 74.871094 C 83.4375 81.085938 81.527344 84.203125 77.714844 84.203125 Z M 77.714844 84.203125 " fill-opacity="1" fill-rule="nonzero"/><path fill="#de8a03" d="M 62.953125 74.925781 C 62.953125 74.925781 59.375 72.910156 57.605469 71.957031 C 55.65625 70.894531 54.601562 69.644531 54.601562 68.199219 C 54.601562 67.25 55.03125 66.480469 55.722656 65.875 C 56.40625 65.261719 57.394531 64.964844 58.667969 64.964844 C 60.242188 64.964844 61.839844 65.308594 63.464844 65.984375 L 64.421875 63.878906 C 62.53125 62.664062 60.421875 62.066406 58.113281 62.066406 C 55.859375 62.066406 54.035156 62.667969 52.617188 63.902344 C 51.207031 65.117188 50.5 66.710938 50.5 68.703125 C 50.5 71.097656 51.445312 72.554688 53.347656 73.914062 C 53.347656 73.914062 56.839844 75.882812 58.585938 76.824219 C 60.472656 77.867188 61.507812 79.105469 61.507812 80.566406 C 61.507812 81.722656 61.003906 82.636719 60.15625 83.289062 C 59.300781 83.941406 58.121094 84.265625 56.625 84.265625 C 55.019531 84.265625 53.238281 83.785156 51.265625 82.8125 L 50.195312 84.917969 C 52.488281 86.4375 54.835938 87.199219 57.285156 87.199219 C 59.902344 87.199219 61.972656 86.535156 63.523438 85.207031 C 65.070312 83.882812 65.847656 82.171875 65.847656 80.089844 L 65.875 80.101562 C 65.875 77.71875 64.90625 76.277344 62.953125 74.925781 Z M 62.953125 74.925781 " fill-opacity="1" fill-rule="nonzero"/><path fill="#105e86" d="M 77.394531 28.453125 C 76.878906 28.453125 76.527344 28.515625 76.160156 28.597656 L 76.160156 28.65625 L 76.226562 28.65625 C 76.46875 29.117188 76.882812 29.457031 77.1875 29.867188 C 77.433594 30.339844 77.640625 30.8125 77.882812 31.28125 L 77.945312 31.214844 C 78.371094 30.921875 78.578125 30.453125 78.578125 29.738281 C 78.398438 29.53125 78.371094 29.324219 78.214844 29.121094 C 78.035156 28.824219 77.648438 28.679688 77.40625 28.445312 Z M 77.394531 28.453125 " fill-opacity="1" fill-rule="nonzero"/><path fill="#105e86" d="M 110.246094 61.964844 C 109.375 60.816406 108.289062 59.8125 107.117188 58.976562 C 106.152344 58.332031 104.042969 57.425781 103.644531 56.34375 L 103.585938 56.28125 C 104.246094 56.222656 105.027344 55.988281 105.660156 55.8125 C 106.683594 55.546875 107.621094 55.605469 108.679688 55.34375 C 109.15625 55.226562 109.640625 55.078125 110.121094 54.925781 L 110.121094 54.660156 C 109.582031 54.128906 109.175781 53.40625 108.617188 52.910156 C 107.085938 51.605469 105.386719 50.335938 103.640625 49.269531 C 102.695312 48.671875 101.496094 48.292969 100.5 47.789062 C 100.140625 47.613281 99.535156 47.523438 99.328125 47.226562 C 98.789062 46.582031 98.472656 45.71875 98.089844 44.949219 C 97.222656 43.320312 96.378906 41.515625 95.625 39.800781 C 95.082031 38.640625 94.753906 37.484375 94.09375 36.421875 C 90.984375 31.390625 87.617188 28.335938 82.4375 25.355469 C 81.324219 24.738281 79.992188 24.472656 78.582031 24.144531 C 77.828125 24.105469 77.078125 24.054688 76.328125 24.023438 C 75.832031 23.8125 75.355469 23.25 74.929688 22.980469 C 73.21875 21.914062 68.785156 19.617188 67.523438 22.660156 C 66.710938 24.582031 68.726562 26.472656 69.425781 27.449219 C 69.941406 28.125 70.597656 28.902344 70.957031 29.664062 C 71.167969 30.175781 71.226562 30.703125 71.4375 31.242188 C 71.917969 32.542969 72.371094 33.992188 73.003906 35.214844 C 73.332031 35.832031 73.691406 36.484375 74.117188 37.039062 C 74.359375 37.363281 74.773438 37.511719 74.867188 38.046875 C 74.445312 38.648438 74.417969 39.523438 74.175781 40.257812 C 73.09375 43.609375 73.515625 47.753906 75.046875 50.21875 C 75.53125 50.953125 76.679688 52.582031 78.214844 51.960938 C 79.570312 51.429688 79.269531 49.746094 79.660156 48.261719 C 79.75 47.90625 79.691406 47.671875 79.875 47.433594 L 79.875 47.5 C 80.296875 48.335938 80.722656 49.125 81.109375 49.957031 C 82.039062 51.410156 83.660156 52.917969 85.015625 53.921875 C 85.738281 54.453125 86.308594 55.375 87.210938 55.703125 L 87.210938 55.613281 L 87.144531 55.613281 C 86.949219 55.355469 86.691406 55.234375 86.449219 55.023438 C 85.910156 54.488281 85.300781 53.839844 84.871094 53.25 C 83.609375 51.582031 82.496094 49.75 81.507812 47.855469 C 81.011719 46.929688 80.597656 45.925781 80.199219 45.011719 C 80.019531 44.660156 80.019531 44.128906 79.71875 43.949219 C 79.265625 44.59375 78.605469 45.15625 78.273438 45.953125 C 77.703125 47.230469 77.644531 48.796875 77.429688 50.425781 C 77.304688 50.460938 77.363281 50.425781 77.304688 50.492188 C 76.34375 50.261719 76.011719 49.277344 75.652344 48.453125 C 74.75 46.351562 74.601562 42.972656 75.382812 40.546875 C 75.59375 39.929688 76.496094 37.972656 76.132812 37.378906 C 75.945312 36.8125 75.351562 36.492188 75.023438 36.039062 C 74.628906 35.488281 74.210938 34.777344 73.941406 34.148438 C 73.21875 32.496094 72.859375 30.660156 72.074219 29.003906 C 71.714844 28.238281 71.082031 27.433594 70.570312 26.730469 C 69.996094 25.933594 69.367188 25.375 68.910156 24.425781 C 68.761719 24.101562 68.550781 23.566406 68.789062 23.214844 C 68.851562 22.976562 68.980469 22.878906 69.214844 22.816406 C 69.609375 22.496094 70.722656 22.917969 71.113281 23.09375 C 72.226562 23.535156 73.164062 23.949219 74.097656 24.570312 C 74.519531 24.863281 74.976562 25.425781 75.515625 25.574219 L 76.148438 25.574219 C 77.113281 25.78125 78.199219 25.636719 79.101562 25.898438 C 80.699219 26.402344 82.140625 27.136719 83.433594 27.933594 C 87.382812 30.398438 90.628906 33.886719 92.832031 38.054688 C 93.191406 38.734375 93.347656 39.363281 93.679688 40.070312 C 94.308594 41.53125 95.089844 43.003906 95.726562 44.417969 C 96.359375 45.808594 96.96875 47.234375 97.875 48.390625 C 98.324219 49.007812 100.136719 49.332031 100.945312 49.65625 C 101.546875 49.921875 102.480469 50.164062 103.019531 50.492188 C 104.054688 51.109375 105.066406 51.820312 106.039062 52.5 C 106.535156 52.839844 108.035156 53.578125 108.125 54.175781 C 105.714844 54.113281 103.84375 54.351562 102.28125 55.007812 C 101.828125 55.183594 101.109375 55.183594 101.046875 55.75 C 101.292969 55.984375 101.328125 56.367188 101.542969 56.695312 C 101.902344 57.285156 102.523438 58.078125 103.101562 58.5 C 103.730469 58.984375 104.363281 59.453125 105.023438 59.871094 C 106.195312 60.578125 107.527344 60.996094 108.675781 61.710938 C 109.328125 62.125 109.996094 62.652344 110.65625 63.09375 C 110.988281 63.316406 111.199219 63.714844 111.621094 63.855469 L 111.621094 63.769531 C 111.414062 63.503906 111.351562 63.121094 111.148438 62.824219 C 110.847656 62.527344 110.546875 62.257812 110.246094 61.964844 Z M 110.246094 61.964844 " fill-opacity="1" fill-rule="nonzero"/></svg>