<svg xmlns="http://www.w3.org/2000/svg" xmlns:xlink="http://www.w3.org/1999/xlink" width="150" zoomAndPan="magnify" viewBox="0 0 112.5 112.499997" height="150" preserveAspectRatio="xMidYMid meet" version="1.0"><defs><clipPath id="id1"><path d="M 16.324219 11.25 L 95.824219 11.25 L 95.824219 101.25 L 16.324219 101.25 Z M 16.324219 11.25 " clip-rule="nonzero"/></clipPath></defs><g clip-path="url(#id1)"><path fill="#539e43" d="M 56.074219 101.238281 C 54.839844 101.238281 53.691406 100.90625 52.625 100.332031 L 41.714844 93.820312 C 40.074219 92.914062 40.894531 92.585938 41.386719 92.421875 C 43.601562 91.679688 44.011719 91.511719 46.308594 90.195312 C 46.554688 90.03125 46.882812 90.113281 47.128906 90.277344 L 55.496094 95.304688 C 55.824219 95.46875 56.238281 95.46875 56.484375 95.304688 L 89.21875 76.269531 C 89.546875 76.101562 89.710938 75.773438 89.710938 75.359375 L 89.710938 37.367188 C 89.710938 36.953125 89.546875 36.625 89.21875 36.460938 L 56.484375 17.503906 C 56.15625 17.339844 55.746094 17.339844 55.496094 17.503906 L 22.761719 36.460938 C 22.429688 36.625 22.265625 37.039062 22.265625 37.367188 L 22.265625 75.359375 C 22.265625 75.691406 22.429688 76.105469 22.757812 76.269531 L 31.703125 81.460938 C 36.542969 83.929688 39.582031 81.046875 39.582031 78.164062 L 39.582031 40.664062 C 39.582031 40.167969 39.992188 39.675781 40.566406 39.675781 L 44.75 39.675781 C 45.242188 39.675781 45.734375 40.085938 45.734375 40.664062 L 45.734375 78.164062 C 45.734375 84.675781 42.207031 88.464844 36.050781 88.464844 C 34.164062 88.464844 32.6875 88.464844 28.503906 86.402344 L 19.886719 81.460938 C 17.753906 80.226562 16.441406 77.917969 16.441406 75.445312 L 16.441406 37.453125 C 16.441406 34.976562 17.753906 32.671875 19.886719 31.433594 L 52.625 12.394531 C 54.675781 11.242188 57.46875 11.242188 59.519531 12.394531 L 92.257812 31.433594 C 94.390625 32.667969 95.703125 34.976562 95.703125 37.449219 L 95.703125 75.445312 C 95.703125 77.914062 94.390625 80.222656 92.257812 81.457031 L 59.519531 100.496094 C 58.453125 100.992188 57.222656 101.238281 56.074219 101.238281 Z M 66.167969 75.113281 C 51.804688 75.113281 48.851562 68.519531 48.851562 62.914062 C 48.851562 62.421875 49.261719 61.925781 49.835938 61.925781 L 54.105469 61.925781 C 54.597656 61.925781 55.003906 62.253906 55.003906 62.75 C 55.660156 67.117188 57.550781 69.261719 66.246094 69.261719 C 73.140625 69.261719 76.09375 67.695312 76.09375 63.988281 C 76.09375 61.84375 75.273438 60.277344 64.523438 59.207031 C 55.582031 58.300781 50 56.320312 50 49.152344 C 50 42.476562 55.582031 38.519531 64.933594 38.519531 C 75.4375 38.519531 80.605469 42.148438 81.261719 50.058594 C 81.261719 50.308594 81.179688 50.550781 81.015625 50.800781 C 80.851562 50.964844 80.605469 51.132812 80.359375 51.132812 L 76.09375 51.132812 C 75.683594 51.132812 75.273438 50.800781 75.191406 50.386719 C 74.207031 45.855469 71.660156 44.375 64.933594 44.375 C 57.386719 44.375 56.484375 47.011719 56.484375 48.988281 C 56.484375 51.375 57.550781 52.121094 67.722656 53.4375 C 77.816406 54.757812 82.574219 56.652344 82.574219 63.738281 C 82.492188 70.992188 76.585938 75.113281 66.167969 75.113281 Z M 66.167969 75.113281 " fill-opacity="1" fill-rule="nonzero"/></g></svg>