<svg xmlns="http://www.w3.org/2000/svg" xmlns:xlink="http://www.w3.org/1999/xlink" width="150" zoomAndPan="magnify" viewBox="0 0 112.5 112.499997" height="150" preserveAspectRatio="xMidYMid meet" version="1.0"><defs><clipPath id="id1"><path d="M 0 27 L 112.003906 27 L 112.003906 85.5 L 0 85.5 Z M 0 27 " clip-rule="nonzero"/></clipPath><clipPath id="id2"><path d="M 0 56.257812 C 0 72.378906 25.183594 85.445312 56.25 85.445312 C 87.3125 85.445312 112.496094 72.378906 112.496094 56.257812 C 112.496094 40.140625 87.3125 27.074219 56.25 27.074219 C 25.183594 27.074219 0 40.140625 0 56.257812 " clip-rule="nonzero"/></clipPath><clipPath id="id3"><path d="M 0 56.257812 C 0 72.378906 25.183594 85.445312 56.25 85.445312 C 87.3125 85.445312 112.496094 72.378906 112.496094 56.257812 C 112.496094 40.140625 87.3125 27.074219 56.25 27.074219 C 25.183594 27.074219 0 40.140625 0 56.257812 " clip-rule="nonzero"/></clipPath><radialGradient gradientTransform="matrix(1.006876, 0, 0, 0.993124, 33.771844, 37.33423)" gradientUnits="userSpaceOnUse" r="73.358318" cx="0" id="id4" cy="0" fx="0" fy="0"><stop stop-opacity="1" stop-color="rgb(68.199158%, 69.799805%, 83.499146%)" offset="0"/><stop stop-opacity="1" stop-color="rgb(68.199158%, 69.799805%, 83.499146%)" offset="0.25"/><stop stop-opacity="1" stop-color="rgb(68.164062%, 69.764709%, 83.473206%)" offset="0.296875"/><stop stop-opacity="1" stop-color="rgb(67.956543%, 69.555664%, 83.317566%)" offset="0.300781"/><stop stop-opacity="1" stop-color="rgb(67.608643%, 69.20929%, 83.059692%)" offset="0.304688"/><stop stop-opacity="1" stop-color="rgb(67.260742%, 68.861389%, 82.800293%)" offset="0.308594"/><stop stop-opacity="1" stop-color="rgb(66.914368%, 68.513489%, 82.542419%)" offset="0.3125"/><stop stop-opacity="1" stop-color="rgb(66.566467%, 68.167114%, 82.28302%)" offset="0.316406"/><stop stop-opacity="1" stop-color="rgb(66.220093%, 67.819214%, 82.025146%)" offset="0.320312"/><stop stop-opacity="1" stop-color="rgb(65.872192%, 67.472839%, 81.765747%)" offset="0.324219"/><stop stop-opacity="1" stop-color="rgb(65.525818%, 67.124939%, 81.506348%)" offset="0.328125"/><stop stop-opacity="1" stop-color="rgb(65.177917%, 66.778564%, 81.248474%)" offset="0.332031"/><stop stop-opacity="1" stop-color="rgb(64.831543%, 66.430664%, 80.989075%)" offset="0.335938"/><stop stop-opacity="1" stop-color="rgb(64.483643%, 66.08429%, 80.731201%)" offset="0.339844"/><stop stop-opacity="1" stop-color="rgb(64.135742%, 65.736389%, 80.471802%)" offset="0.34375"/><stop stop-opacity="1" stop-color="rgb(63.789368%, 65.388489%, 80.213928%)" offset="0.347656"/><stop stop-opacity="1" stop-color="rgb(63.441467%, 65.042114%, 79.954529%)" offset="0.351562"/><stop stop-opacity="1" stop-color="rgb(63.095093%, 64.694214%, 79.696655%)" offset="0.355469"/><stop stop-opacity="1" stop-color="rgb(62.747192%, 64.347839%, 79.437256%)" offset="0.359375"/><stop stop-opacity="1" stop-color="rgb(62.400818%, 63.999939%, 79.179382%)" offset="0.363281"/><stop stop-opacity="1" stop-color="rgb(62.052917%, 63.653564%, 78.919983%)" offset="0.367188"/><stop stop-opacity="1" stop-color="rgb(61.706543%, 63.305664%, 78.662109%)" offset="0.371094"/><stop stop-opacity="1" stop-color="rgb(61.358643%, 62.95929%, 78.40271%)" offset="0.375"/><stop stop-opacity="1" stop-color="rgb(61.010742%, 62.611389%, 78.144836%)" offset="0.378906"/><stop stop-opacity="1" stop-color="rgb(60.664368%, 62.263489%, 77.885437%)" offset="0.382812"/><stop stop-opacity="1" stop-color="rgb(60.316467%, 61.917114%, 77.627563%)" offset="0.386719"/><stop stop-opacity="1" stop-color="rgb(59.970093%, 61.569214%, 77.368164%)" offset="0.390625"/><stop stop-opacity="1" stop-color="rgb(59.622192%, 61.222839%, 77.108765%)" offset="0.394531"/><stop stop-opacity="1" stop-color="rgb(59.275818%, 60.874939%, 76.850891%)" offset="0.398438"/><stop stop-opacity="1" stop-color="rgb(58.927917%, 60.528564%, 76.591492%)" offset="0.402344"/><stop stop-opacity="1" stop-color="rgb(58.581543%, 60.180664%, 76.333618%)" offset="0.40625"/><stop stop-opacity="1" stop-color="rgb(58.233643%, 59.83429%, 76.074219%)" offset="0.410156"/><stop stop-opacity="1" stop-color="rgb(57.885742%, 59.486389%, 75.816345%)" offset="0.414062"/><stop stop-opacity="1" stop-color="rgb(57.539368%, 59.138489%, 75.556946%)" offset="0.417969"/><stop stop-opacity="1" stop-color="rgb(57.191467%, 58.792114%, 75.299072%)" offset="0.421875"/><stop stop-opacity="1" stop-color="rgb(56.845093%, 58.444214%, 75.039673%)" offset="0.425781"/><stop stop-opacity="1" stop-color="rgb(56.497192%, 58.097839%, 74.781799%)" offset="0.429688"/><stop stop-opacity="1" stop-color="rgb(56.150818%, 57.749939%, 74.5224%)" offset="0.433594"/><stop stop-opacity="1" stop-color="rgb(55.802917%, 57.403564%, 74.264526%)" offset="0.4375"/><stop stop-opacity="1" stop-color="rgb(55.456543%, 57.055664%, 74.005127%)" offset="0.441406"/><stop stop-opacity="1" stop-color="rgb(55.108643%, 56.70929%, 73.747253%)" offset="0.445312"/><stop stop-opacity="1" stop-color="rgb(54.760742%, 56.361389%, 73.487854%)" offset="0.449219"/><stop stop-opacity="1" stop-color="rgb(54.414368%, 56.013489%, 73.22998%)" offset="0.453125"/><stop stop-opacity="1" stop-color="rgb(54.066467%, 55.667114%, 72.970581%)" offset="0.457031"/><stop stop-opacity="1" stop-color="rgb(53.720093%, 55.319214%, 72.711182%)" offset="0.460938"/><stop stop-opacity="1" stop-color="rgb(53.372192%, 54.972839%, 72.453308%)" offset="0.464844"/><stop stop-opacity="1" stop-color="rgb(53.025818%, 54.624939%, 72.193909%)" offset="0.46875"/><stop stop-opacity="1" stop-color="rgb(52.677917%, 54.278564%, 71.936035%)" offset="0.472656"/><stop stop-opacity="1" stop-color="rgb(52.331543%, 53.930664%, 71.676636%)" offset="0.476562"/><stop stop-opacity="1" stop-color="rgb(51.983643%, 53.58429%, 71.418762%)" offset="0.480469"/><stop stop-opacity="1" stop-color="rgb(51.635742%, 53.236389%, 71.159363%)" offset="0.484375"/><stop stop-opacity="1" stop-color="rgb(51.289368%, 52.888489%, 70.901489%)" offset="0.488281"/><stop stop-opacity="1" stop-color="rgb(50.941467%, 52.542114%, 70.64209%)" offset="0.492188"/><stop stop-opacity="1" stop-color="rgb(50.595093%, 52.194214%, 70.384216%)" offset="0.496094"/><stop stop-opacity="1" stop-color="rgb(50.247192%, 51.847839%, 70.124817%)" offset="0.5"/><stop stop-opacity="1" stop-color="rgb(49.900818%, 51.499939%, 69.866943%)" offset="0.503906"/><stop stop-opacity="1" stop-color="rgb(49.552917%, 51.153564%, 69.607544%)" offset="0.507812"/><stop stop-opacity="1" stop-color="rgb(49.206543%, 50.805664%, 69.34967%)" offset="0.511719"/><stop stop-opacity="1" stop-color="rgb(48.858643%, 50.45929%, 69.090271%)" offset="0.515625"/><stop stop-opacity="1" stop-color="rgb(48.510742%, 50.111389%, 68.832397%)" offset="0.519531"/><stop stop-opacity="1" stop-color="rgb(48.164368%, 49.763489%, 68.572998%)" offset="0.523438"/><stop stop-opacity="1" stop-color="rgb(47.816467%, 49.417114%, 68.313599%)" offset="0.527344"/><stop stop-opacity="1" stop-color="rgb(47.470093%, 49.069214%, 68.055725%)" offset="0.53125"/><stop stop-opacity="1" stop-color="rgb(47.122192%, 48.722839%, 67.796326%)" offset="0.535156"/><stop stop-opacity="1" stop-color="rgb(46.775818%, 48.374939%, 67.538452%)" offset="0.539062"/><stop stop-opacity="1" stop-color="rgb(46.427917%, 48.028564%, 67.279053%)" offset="0.542969"/><stop stop-opacity="1" stop-color="rgb(46.081543%, 47.680664%, 67.021179%)" offset="0.546875"/><stop stop-opacity="1" stop-color="rgb(45.733643%, 47.33429%, 66.76178%)" offset="0.550781"/><stop stop-opacity="1" stop-color="rgb(45.385742%, 46.986389%, 66.503906%)" offset="0.554688"/><stop stop-opacity="1" stop-color="rgb(45.039368%, 46.638489%, 66.244507%)" offset="0.558594"/><stop stop-opacity="1" stop-color="rgb(44.691467%, 46.292114%, 65.986633%)" offset="0.5625"/><stop stop-opacity="1" stop-color="rgb(44.345093%, 45.944214%, 65.727234%)" offset="0.566406"/><stop stop-opacity="1" stop-color="rgb(43.997192%, 45.597839%, 65.46936%)" offset="0.570312"/><stop stop-opacity="1" stop-color="rgb(43.650818%, 45.249939%, 65.209961%)" offset="0.574219"/><stop stop-opacity="1" stop-color="rgb(43.302917%, 44.903564%, 64.952087%)" offset="0.578125"/><stop stop-opacity="1" stop-color="rgb(42.956543%, 44.555664%, 64.692688%)" offset="0.582031"/><stop stop-opacity="1" stop-color="rgb(42.608643%, 44.20929%, 64.434814%)" offset="0.585938"/><stop stop-opacity="1" stop-color="rgb(42.260742%, 43.861389%, 64.175415%)" offset="0.589844"/><stop stop-opacity="1" stop-color="rgb(41.914368%, 43.513489%, 63.916016%)" offset="0.59375"/><stop stop-opacity="1" stop-color="rgb(41.566467%, 43.167114%, 63.658142%)" offset="0.597656"/><stop stop-opacity="1" stop-color="rgb(41.220093%, 42.819214%, 63.398743%)" offset="0.601562"/><stop stop-opacity="1" stop-color="rgb(40.872192%, 42.472839%, 63.140869%)" offset="0.605469"/><stop stop-opacity="1" stop-color="rgb(40.525818%, 42.124939%, 62.88147%)" offset="0.609375"/><stop stop-opacity="1" stop-color="rgb(40.177917%, 41.778564%, 62.623596%)" offset="0.613281"/><stop stop-opacity="1" stop-color="rgb(39.831543%, 41.430664%, 62.364197%)" offset="0.617188"/><stop stop-opacity="1" stop-color="rgb(39.483643%, 41.08429%, 62.106323%)" offset="0.621094"/><stop stop-opacity="1" stop-color="rgb(39.135742%, 40.736389%, 61.846924%)" offset="0.625"/><stop stop-opacity="1" stop-color="rgb(38.789368%, 40.388489%, 61.58905%)" offset="0.628906"/><stop stop-opacity="1" stop-color="rgb(38.441467%, 40.042114%, 61.329651%)" offset="0.632812"/><stop stop-opacity="1" stop-color="rgb(38.095093%, 39.694214%, 61.071777%)" offset="0.636719"/><stop stop-opacity="1" stop-color="rgb(37.747192%, 39.347839%, 60.812378%)" offset="0.640625"/><stop stop-opacity="1" stop-color="rgb(37.400818%, 38.999939%, 60.554504%)" offset="0.644531"/><stop stop-opacity="1" stop-color="rgb(37.052917%, 38.653564%, 60.295105%)" offset="0.648438"/><stop stop-opacity="1" stop-color="rgb(36.706543%, 38.305664%, 60.037231%)" offset="0.652344"/><stop stop-opacity="1" stop-color="rgb(36.358643%, 37.95929%, 59.777832%)" offset="0.65625"/><stop stop-opacity="1" stop-color="rgb(36.010742%, 37.611389%, 59.518433%)" offset="0.660156"/><stop stop-opacity="1" stop-color="rgb(35.664368%, 37.263489%, 59.260559%)" offset="0.664062"/><stop stop-opacity="1" stop-color="rgb(35.316467%, 36.917114%, 59.00116%)" offset="0.667969"/><stop stop-opacity="1" stop-color="rgb(34.970093%, 36.569214%, 58.743286%)" offset="0.671875"/><stop stop-opacity="1" stop-color="rgb(34.622192%, 36.222839%, 58.483887%)" offset="0.675781"/><stop stop-opacity="1" stop-color="rgb(34.275818%, 35.874939%, 58.226013%)" offset="0.679688"/><stop stop-opacity="1" stop-color="rgb(33.927917%, 35.528564%, 57.966614%)" offset="0.683594"/><stop stop-opacity="1" stop-color="rgb(33.581543%, 35.180664%, 57.70874%)" offset="0.6875"/><stop stop-opacity="1" stop-color="rgb(33.233643%, 34.83429%, 57.449341%)" offset="0.691406"/><stop stop-opacity="1" stop-color="rgb(32.885742%, 34.486389%, 57.191467%)" offset="0.695312"/><stop stop-opacity="1" stop-color="rgb(32.539368%, 34.138489%, 56.932068%)" offset="0.699219"/><stop stop-opacity="1" stop-color="rgb(32.191467%, 33.792114%, 56.674194%)" offset="0.703125"/><stop stop-opacity="1" stop-color="rgb(31.845093%, 33.444214%, 56.414795%)" offset="0.707031"/><stop stop-opacity="1" stop-color="rgb(31.497192%, 33.097839%, 56.156921%)" offset="0.710938"/><stop stop-opacity="1" stop-color="rgb(31.150818%, 32.749939%, 55.897522%)" offset="0.714844"/><stop stop-opacity="1" stop-color="rgb(30.802917%, 32.403564%, 55.639648%)" offset="0.71875"/><stop stop-opacity="1" stop-color="rgb(30.456543%, 32.055664%, 55.380249%)" offset="0.722656"/><stop stop-opacity="1" stop-color="rgb(30.108643%, 31.70929%, 55.122375%)" offset="0.726562"/><stop stop-opacity="1" stop-color="rgb(29.760742%, 31.361389%, 54.862976%)" offset="0.730469"/><stop stop-opacity="1" stop-color="rgb(29.414368%, 31.013489%, 54.603577%)" offset="0.734375"/><stop stop-opacity="1" stop-color="rgb(29.066467%, 30.667114%, 54.345703%)" offset="0.738281"/><stop stop-opacity="1" stop-color="rgb(28.720093%, 30.319214%, 54.086304%)" offset="0.742188"/><stop stop-opacity="1" stop-color="rgb(28.372192%, 29.972839%, 53.82843%)" offset="0.746094"/><stop stop-opacity="1" stop-color="rgb(28.199768%, 29.798889%, 53.69873%)" offset="1"/></radialGradient></defs><g clip-path="url(#id1)"><g clip-path="url(#id2)"><g clip-path="url(#id3)"><path fill="url(#id4)" d="M 0 27.074219 L 0 85.445312 L 112.003906 85.445312 L 112.003906 27.074219 Z M 0 27.074219 " fill-rule="nonzero"/></g></g></g><path fill="#777bb3" d="M 56.25 83.277344 C 86.101562 83.277344 110.300781 71.179688 110.300781 56.257812 C 110.300781 41.335938 86.101562 29.242188 56.25 29.242188 C 26.398438 29.242188 2.195312 41.335938 2.195312 56.257812 C 2.195312 71.179688 26.398438 83.277344 56.25 83.277344 " fill-opacity="1" fill-rule="nonzero"/><path fill="#000000" d="M 30.558594 59.609375 C 33.015625 59.609375 34.847656 59.160156 36.003906 58.28125 C 37.152344 57.410156 37.945312 55.902344 38.359375 53.796875 C 38.746094 51.828125 38.601562 50.453125 37.921875 49.714844 C 37.230469 48.957031 35.730469 48.570312 33.46875 48.570312 L 29.546875 48.570312 L 27.371094 59.609375 Z M 17.730469 73.203125 C 17.546875 73.203125 17.375 73.125 17.257812 72.984375 C 17.136719 72.839844 17.09375 72.671875 17.132812 72.488281 L 22.894531 43.238281 C 22.921875 43.097656 22.992188 42.980469 23.105469 42.890625 C 23.21875 42.800781 23.347656 42.753906 23.492188 42.753906 L 35.914062 42.753906 C 39.820312 42.753906 42.722656 43.796875 44.550781 45.859375 C 46.386719 47.933594 46.953125 50.832031 46.234375 54.472656 C 45.941406 55.957031 45.441406 57.335938 44.742188 58.570312 C 44.042969 59.804688 43.117188 60.945312 41.992188 61.964844 C 40.648438 63.207031 39.125 64.109375 37.46875 64.640625 C 35.839844 65.164062 33.75 65.429688 31.253906 65.429688 L 26.226562 65.429688 L 24.789062 72.71875 C 24.761719 72.859375 24.691406 72.976562 24.578125 73.066406 C 24.464844 73.160156 24.335938 73.203125 24.191406 73.203125 Z M 17.730469 73.203125 " fill-opacity="1" fill-rule="nonzero"/><path fill="#ffffff" d="M 30.046875 49.171875 L 33.46875 49.171875 C 36.199219 49.171875 37.148438 49.765625 37.46875 50.117188 C 38.003906 50.703125 38.105469 51.933594 37.761719 53.683594 C 37.375 55.636719 36.660156 57.027344 35.632812 57.804688 C 34.582031 58.601562 32.875 59.007812 30.558594 59.007812 L 28.113281 59.007812 L 30.050781 49.171875 Z M 35.914062 42.148438 L 23.492188 42.148438 C 23.203125 42.148438 22.941406 42.242188 22.71875 42.425781 C 22.492188 42.609375 22.351562 42.839844 22.296875 43.125 L 16.53125 72.375 C 16.496094 72.550781 16.503906 72.726562 16.546875 72.898438 C 16.59375 73.074219 16.671875 73.230469 16.789062 73.367188 C 16.90625 73.507812 17.046875 73.617188 17.210938 73.691406 C 17.375 73.769531 17.546875 73.808594 17.730469 73.808594 L 24.191406 73.808594 C 24.480469 73.808594 24.742188 73.714844 24.964844 73.53125 C 25.191406 73.347656 25.332031 73.117188 25.386719 72.832031 L 26.730469 66.03125 L 31.253906 66.03125 C 33.816406 66.03125 35.96875 65.757812 37.660156 65.214844 C 39.398438 64.65625 40.996094 63.710938 42.410156 62.40625 C 43.582031 61.34375 44.546875 60.152344 45.277344 58.863281 C 46.003906 57.574219 46.53125 56.136719 46.835938 54.589844 C 47.589844 50.753906 46.976562 47.6875 45.011719 45.464844 C 43.0625 43.265625 40.003906 42.152344 35.914062 42.152344 M 26.632812 60.210938 L 30.5625 60.210938 C 33.164062 60.210938 35.105469 59.726562 36.378906 58.761719 C 37.652344 57.792969 38.515625 56.175781 38.960938 53.914062 C 39.386719 51.738281 39.195312 50.207031 38.375 49.3125 C 37.558594 48.417969 35.921875 47.972656 33.46875 47.972656 L 29.042969 47.972656 L 26.632812 60.210938 M 35.914062 43.355469 C 39.652344 43.355469 42.378906 44.324219 44.09375 46.257812 C 45.804688 48.191406 46.320312 50.890625 45.636719 54.359375 C 45.355469 55.789062 44.878906 57.09375 44.210938 58.277344 C 43.539062 59.460938 42.664062 60.542969 41.582031 61.523438 C 40.292969 62.714844 38.859375 63.5625 37.28125 64.070312 C 35.707031 64.574219 33.695312 64.828125 31.253906 64.828125 L 25.722656 64.828125 L 24.191406 72.601562 L 17.730469 72.601562 L 23.496094 43.359375 L 35.917969 43.359375 " fill-opacity="1" fill-rule="nonzero"/><path fill="#000000" d="M 61.046875 65.425781 C 60.863281 65.425781 60.691406 65.347656 60.574219 65.207031 C 60.460938 65.070312 60.410156 64.886719 60.445312 64.710938 L 62.996094 51.769531 C 63.238281 50.539062 63.179688 49.65625 62.828125 49.28125 C 62.613281 49.054688 61.96875 48.671875 60.058594 48.671875 L 55.441406 48.671875 L 52.234375 64.941406 C 52.207031 65.082031 52.136719 65.199219 52.023438 65.289062 C 51.910156 65.382812 51.78125 65.425781 51.636719 65.425781 L 45.226562 65.425781 C 45.136719 65.425781 45.050781 65.40625 44.96875 65.371094 C 44.886719 65.332031 44.816406 65.277344 44.757812 65.207031 C 44.699219 65.140625 44.660156 65.0625 44.636719 64.972656 C 44.613281 64.886719 44.609375 64.796875 44.628906 64.710938 L 50.390625 35.464844 C 50.417969 35.320312 50.488281 35.207031 50.601562 35.113281 C 50.714844 35.023438 50.84375 34.976562 50.992188 34.976562 L 57.398438 34.976562 C 57.492188 34.976562 57.578125 34.996094 57.660156 35.035156 C 57.742188 35.070312 57.8125 35.125 57.871094 35.195312 C 57.929688 35.265625 57.96875 35.34375 57.992188 35.429688 C 58.011719 35.515625 58.015625 35.605469 58 35.691406 L 56.609375 42.753906 L 61.578125 42.753906 C 65.363281 42.753906 67.929688 43.410156 69.421875 44.765625 C 70.949219 46.144531 71.421875 48.355469 70.835938 51.332031 L 68.15625 64.941406 C 68.128906 65.082031 68.058594 65.199219 67.945312 65.289062 C 67.832031 65.382812 67.703125 65.425781 67.554688 65.425781 Z M 61.046875 65.425781 " fill-opacity="1" fill-rule="nonzero"/><path fill="#ffffff" d="M 57.398438 34.375 L 50.992188 34.375 C 50.699219 34.375 50.441406 34.464844 50.214844 34.648438 C 49.988281 34.832031 49.847656 35.066406 49.792969 35.347656 L 44.03125 64.597656 C 43.996094 64.773438 44 64.949219 44.046875 65.121094 C 44.089844 65.296875 44.171875 65.453125 44.285156 65.589844 C 44.402344 65.730469 44.542969 65.835938 44.707031 65.914062 C 44.871094 65.992188 45.046875 66.03125 45.226562 66.03125 L 51.636719 66.03125 C 51.929688 66.03125 52.1875 65.9375 52.414062 65.753906 C 52.640625 65.570312 52.777344 65.339844 52.835938 65.054688 L 55.945312 49.273438 L 60.058594 49.273438 C 61.964844 49.273438 62.363281 49.675781 62.378906 49.691406 C 62.496094 49.816406 62.648438 50.382812 62.398438 51.65625 L 59.847656 64.597656 C 59.8125 64.773438 59.820312 64.949219 59.863281 65.121094 C 59.910156 65.296875 59.988281 65.453125 60.105469 65.589844 C 60.21875 65.730469 60.359375 65.835938 60.527344 65.914062 C 60.691406 65.992188 60.863281 66.03125 61.046875 66.03125 L 67.558594 66.03125 C 67.847656 66.03125 68.109375 65.9375 68.332031 65.753906 C 68.558594 65.570312 68.699219 65.339844 68.753906 65.054688 L 71.4375 51.445312 C 72.066406 48.25 71.527344 45.851562 69.835938 44.320312 C 68.222656 42.859375 65.523438 42.148438 61.578125 42.148438 L 57.347656 42.148438 L 58.597656 35.808594 C 58.632812 35.632812 58.628906 35.457031 58.582031 35.28125 C 58.539062 35.109375 58.457031 34.949219 58.34375 34.8125 C 58.226562 34.671875 58.085938 34.566406 57.921875 34.488281 C 57.757812 34.414062 57.582031 34.375 57.402344 34.375 M 57.402344 35.578125 L 55.867188 43.355469 L 61.578125 43.355469 C 65.171875 43.355469 67.648438 43.972656 69.011719 45.207031 C 70.375 46.441406 70.785156 48.445312 70.238281 51.214844 L 67.558594 64.824219 L 61.046875 64.824219 L 63.597656 51.882812 C 63.886719 50.414062 63.78125 49.410156 63.277344 48.875 C 62.773438 48.335938 61.699219 48.070312 60.0625 48.070312 L 54.9375 48.070312 L 51.636719 64.824219 L 45.226562 64.824219 L 50.992188 35.578125 L 57.398438 35.578125 " fill-opacity="1" fill-rule="nonzero"/><path fill="#000000" d="M 80.976562 59.609375 C 83.433594 59.609375 85.265625 59.160156 86.421875 58.28125 C 87.570312 57.410156 88.363281 55.902344 88.777344 53.796875 C 89.164062 51.828125 89.019531 50.453125 88.339844 49.714844 C 87.648438 48.957031 86.148438 48.570312 83.886719 48.570312 L 79.964844 48.570312 L 77.789062 59.609375 Z M 68.148438 73.203125 C 67.964844 73.203125 67.792969 73.125 67.675781 72.984375 C 67.554688 72.839844 67.511719 72.671875 67.546875 72.488281 L 73.3125 43.238281 C 73.339844 43.097656 73.410156 42.980469 73.523438 42.890625 C 73.636719 42.796875 73.765625 42.753906 73.910156 42.753906 L 86.332031 42.753906 C 90.234375 42.753906 93.140625 43.796875 94.96875 45.859375 C 96.804688 47.933594 97.371094 50.832031 96.652344 54.472656 C 96.359375 55.957031 95.859375 57.335938 95.160156 58.566406 C 94.460938 59.804688 93.535156 60.945312 92.410156 61.964844 C 91.066406 63.207031 89.542969 64.109375 87.886719 64.640625 C 86.257812 65.164062 84.167969 65.429688 81.671875 65.429688 L 76.640625 65.429688 L 75.203125 72.714844 C 75.175781 72.859375 75.105469 72.972656 74.992188 73.066406 C 74.878906 73.15625 74.75 73.203125 74.605469 73.203125 L 68.144531 73.203125 Z M 68.148438 73.203125 " fill-opacity="1" fill-rule="nonzero"/><path fill="#ffffff" d="M 80.464844 49.171875 L 83.886719 49.171875 C 86.617188 49.171875 87.566406 49.765625 87.886719 50.117188 C 88.421875 50.703125 88.523438 51.933594 88.179688 53.683594 C 87.792969 55.636719 87.078125 57.027344 86.050781 57.804688 C 85 58.601562 83.292969 59.007812 80.976562 59.007812 L 78.53125 59.007812 Z M 86.332031 42.148438 L 73.910156 42.148438 C 73.617188 42.148438 73.359375 42.242188 73.132812 42.425781 C 72.910156 42.609375 72.769531 42.839844 72.710938 43.125 L 66.949219 72.375 C 66.914062 72.550781 66.917969 72.726562 66.964844 72.898438 C 67.007812 73.074219 67.089844 73.230469 67.207031 73.367188 C 67.320312 73.507812 67.460938 73.617188 67.625 73.691406 C 67.792969 73.769531 67.964844 73.808594 68.148438 73.808594 L 74.605469 73.808594 C 74.898438 73.808594 75.15625 73.714844 75.382812 73.53125 C 75.609375 73.347656 75.75 73.117188 75.804688 72.832031 L 77.144531 66.03125 L 81.671875 66.03125 C 84.230469 66.03125 86.386719 65.757812 88.074219 65.214844 C 89.8125 64.65625 91.414062 63.710938 92.828125 62.40625 C 93.996094 61.34375 94.960938 60.152344 95.691406 58.863281 C 96.421875 57.574219 96.945312 56.136719 97.25 54.589844 C 98.007812 50.753906 97.394531 47.6875 95.425781 45.464844 C 93.480469 43.265625 90.417969 42.152344 86.332031 42.152344 M 77.046875 60.210938 L 80.976562 60.210938 C 83.582031 60.210938 85.519531 59.726562 86.796875 58.761719 C 88.070312 57.792969 88.929688 56.175781 89.375 53.914062 C 89.804688 51.738281 89.609375 50.207031 88.792969 49.3125 C 87.976562 48.417969 86.339844 47.972656 83.886719 47.972656 L 79.460938 47.972656 L 77.046875 60.210938 M 86.332031 43.355469 C 90.070312 43.355469 92.792969 44.324219 94.507812 46.257812 C 96.222656 48.191406 96.738281 50.890625 96.054688 54.359375 C 95.773438 55.789062 95.296875 57.09375 94.625 58.277344 C 93.957031 59.460938 93.078125 60.542969 91.996094 61.523438 C 90.707031 62.714844 89.273438 63.5625 87.699219 64.070312 C 86.121094 64.574219 84.113281 64.828125 81.671875 64.828125 L 76.140625 64.828125 L 74.605469 72.601562 L 68.148438 72.601562 L 73.910156 43.355469 L 86.332031 43.355469 " fill-opacity="1" fill-rule="nonzero"/></svg>