<svg xmlns="http://www.w3.org/2000/svg" xmlns:xlink="http://www.w3.org/1999/xlink" width="150" zoomAndPan="magnify" viewBox="0 0 112.5 112.499997" height="150" preserveAspectRatio="xMidYMid meet" version="1.0"><defs><clipPath id="id1"><path d="M 7.625 13 L 105.125 13 L 105.125 100 L 7.625 100 Z M 7.625 13 " clip-rule="nonzero"/></clipPath></defs><g clip-path="url(#id1)"><path fill="#00d8ff" d="M 87.726562 41.058594 C 86.71875 40.710938 85.675781 40.382812 84.59375 40.074219 C 84.773438 39.351562 84.9375 38.640625 85.082031 37.941406 C 87.449219 26.460938 85.902344 17.214844 80.605469 14.167969 C 75.527344 11.25 67.226562 14.292969 58.84375 21.570312 C 58.035156 22.269531 57.226562 23.011719 56.421875 23.789062 C 55.882812 23.273438 55.34375 22.777344 54.808594 22.304688 C 46.019531 14.519531 37.210938 11.242188 31.921875 14.296875 C 26.851562 17.222656 25.351562 25.917969 27.484375 36.796875 C 27.691406 37.847656 27.933594 38.921875 28.203125 40.011719 C 26.957031 40.367188 25.753906 40.742188 24.601562 41.140625 C 14.300781 44.722656 7.722656 50.339844 7.722656 56.164062 C 7.722656 62.175781 14.785156 68.210938 25.515625 71.871094 C 26.359375 72.15625 27.238281 72.429688 28.144531 72.6875 C 27.851562 73.867188 27.597656 75.023438 27.382812 76.152344 C 25.347656 86.84375 26.9375 95.332031 31.992188 98.238281 C 37.21875 101.246094 45.988281 98.15625 54.523438 90.714844 C 55.199219 90.128906 55.878906 89.5 56.554688 88.847656 C 57.4375 89.691406 58.3125 90.492188 59.183594 91.242188 C 67.457031 98.339844 75.625 101.203125 80.675781 98.289062 C 85.894531 95.273438 87.59375 86.152344 85.390625 75.0625 C 85.222656 74.210938 85.023438 73.347656 84.808594 72.46875 C 85.421875 72.285156 86.027344 72.097656 86.617188 71.902344 C 97.773438 68.214844 105.03125 62.257812 105.03125 56.164062 C 105.03125 50.316406 98.238281 44.664062 87.726562 41.058594 Z M 85.308594 67.96875 C 84.777344 68.144531 84.230469 68.3125 83.675781 68.476562 C 82.441406 64.589844 80.78125 60.453125 78.746094 56.183594 C 80.6875 52.011719 82.285156 47.929688 83.480469 44.066406 C 84.476562 44.355469 85.441406 44.65625 86.375 44.976562 C 95.378906 48.070312 100.871094 52.640625 100.871094 56.164062 C 100.871094 59.914062 94.941406 64.785156 85.308594 67.96875 Z M 81.3125 75.863281 C 82.289062 80.769531 82.425781 85.207031 81.777344 88.675781 C 81.199219 91.792969 80.035156 93.867188 78.59375 94.699219 C 75.523438 96.46875 68.96875 94.167969 61.898438 88.097656 C 61.085938 87.402344 60.269531 86.65625 59.449219 85.875 C 62.191406 82.882812 64.929688 79.40625 67.609375 75.542969 C 72.308594 75.128906 76.753906 74.445312 80.785156 73.519531 C 80.984375 74.316406 81.160156 75.097656 81.3125 75.863281 Z M 40.898438 94.390625 C 37.902344 95.449219 35.515625 95.480469 34.070312 94.648438 C 31.003906 92.882812 29.726562 86.066406 31.46875 76.925781 C 31.667969 75.878906 31.902344 74.804688 32.175781 73.703125 C 36.164062 74.582031 40.574219 75.214844 45.289062 75.597656 C 47.984375 79.375 50.804688 82.847656 53.644531 85.886719 C 53.023438 86.488281 52.40625 87.054688 51.789062 87.589844 C 48.015625 90.886719 44.230469 93.21875 40.898438 94.390625 Z M 26.859375 67.945312 C 22.117188 66.328125 18.195312 64.226562 15.511719 61.929688 C 13.097656 59.871094 11.878906 57.824219 11.878906 56.164062 C 11.878906 52.628906 17.160156 48.121094 25.972656 45.058594 C 27.042969 44.683594 28.160156 44.335938 29.320312 44.003906 C 30.539062 47.957031 32.136719 52.085938 34.066406 56.261719 C 32.113281 60.5 30.492188 64.695312 29.261719 68.695312 C 28.433594 68.457031 27.632812 68.207031 26.859375 67.945312 Z M 31.566406 36 C 29.738281 26.679688 30.953125 19.648438 34.007812 17.882812 C 37.261719 16.003906 44.460938 18.683594 52.046875 25.402344 C 52.535156 25.832031 53.019531 26.28125 53.511719 26.746094 C 50.683594 29.773438 47.890625 33.222656 45.21875 36.976562 C 40.644531 37.402344 36.261719 38.082031 32.234375 38.992188 C 31.980469 37.976562 31.757812 36.976562 31.566406 36 Z M 73.539062 46.339844 C 72.574219 44.679688 71.585938 43.058594 70.582031 41.484375 C 73.6875 41.875 76.660156 42.394531 79.453125 43.03125 C 78.617188 45.710938 77.570312 48.515625 76.339844 51.390625 C 75.457031 49.71875 74.523438 48.03125 73.539062 46.339844 Z M 56.421875 29.710938 C 58.339844 31.78125 60.261719 34.09375 62.148438 36.605469 C 60.246094 36.515625 58.316406 36.46875 56.375 36.46875 C 54.453125 36.46875 52.539062 36.515625 50.648438 36.601562 C 52.535156 34.117188 54.476562 31.804688 56.421875 29.710938 Z M 39.195312 46.367188 C 38.234375 48.03125 37.316406 49.707031 36.449219 51.386719 C 35.238281 48.523438 34.203125 45.707031 33.355469 42.988281 C 36.132812 42.367188 39.09375 41.863281 42.179688 41.476562 C 41.15625 43.066406 40.160156 44.699219 39.195312 46.367188 Z M 42.265625 71.140625 C 39.078125 70.789062 36.074219 70.308594 33.300781 69.703125 C 34.160156 66.9375 35.214844 64.0625 36.453125 61.136719 C 37.324219 62.816406 38.242188 64.492188 39.210938 66.160156 C 40.199219 67.859375 41.21875 69.519531 42.265625 71.140625 Z M 56.535156 82.90625 C 54.566406 80.785156 52.601562 78.4375 50.679688 75.917969 C 52.542969 75.988281 54.445312 76.027344 56.375 76.027344 C 58.359375 76.027344 60.320312 75.984375 62.25 75.898438 C 60.355469 78.464844 58.441406 80.816406 56.535156 82.90625 Z M 76.378906 60.988281 C 77.675781 63.945312 78.777344 66.804688 79.644531 69.527344 C 76.824219 70.167969 73.777344 70.683594 70.570312 71.070312 C 71.582031 69.472656 72.574219 67.824219 73.558594 66.128906 C 74.546875 64.414062 75.488281 62.699219 76.378906 60.988281 Z M 69.953125 64.058594 C 68.433594 66.691406 66.871094 69.199219 65.285156 71.570312 C 62.402344 71.773438 59.417969 71.878906 56.375 71.878906 C 53.347656 71.878906 50.398438 71.789062 47.566406 71.605469 C 45.914062 69.203125 44.320312 66.6875 42.808594 64.082031 C 41.300781 61.484375 39.914062 58.867188 38.65625 56.261719 C 39.914062 53.652344 41.296875 51.03125 42.796875 48.4375 C 44.300781 45.839844 45.878906 43.332031 47.515625 40.945312 C 50.40625 40.726562 53.375 40.613281 56.375 40.613281 C 59.390625 40.613281 62.359375 40.730469 65.25 40.949219 C 66.863281 43.316406 68.433594 45.816406 69.941406 48.414062 C 71.464844 51.042969 72.867188 53.648438 74.132812 56.203125 C 72.871094 58.800781 71.472656 61.433594 69.953125 64.058594 Z M 78.527344 17.757812 C 81.789062 19.632812 83.054688 27.191406 81.007812 37.105469 C 80.878906 37.734375 80.730469 38.378906 80.570312 39.03125 C 76.53125 38.105469 72.148438 37.414062 67.5625 36.984375 C 64.886719 33.183594 62.117188 29.734375 59.332031 26.742188 C 60.082031 26.027344 60.832031 25.34375 61.570312 24.695312 C 68.757812 18.460938 75.472656 16 78.527344 17.757812 Z M 56.375 47.496094 C 61.171875 47.496094 65.066406 51.375 65.066406 56.160156 C 65.066406 60.945312 61.171875 64.828125 56.375 64.828125 C 51.578125 64.828125 47.6875 60.945312 47.6875 56.160156 C 47.6875 51.375 51.578125 47.496094 56.375 47.496094 Z M 56.375 47.496094 " fill-opacity="1" fill-rule="nonzero"/></g></svg>